<svg xmlns="http://www.w3.org/2000/svg" width="1200" height="630" viewBox="0 0 1200 630">
  <defs>
    <linearGradient id="bg" x1="0" y1="0" x2="0" y2="1">
      <stop offset="0%" stop-color="#1B3A1E"/>
      <stop offset="100%" stop-color="#0F2511"/>
    </linearGradient>
  </defs>
  <rect width="1200" height="630" fill="url(#bg)"/>

  <g transform="translate(80,70)">
    <g transform="scale(1.1)">
      <path fill="#E8A830" d="M0,0C9,-12 11,-30 0,-40C-11,-30 -9,-12 0,0" transform="rotate(0)"/>
      <path fill="#E8A830" d="M0,0C9,-12 11,-30 0,-40C-11,-30 -9,-12 0,0" transform="rotate(60)"/>
      <path fill="#E8A830" d="M0,0C9,-12 11,-30 0,-40C-11,-30 -9,-12 0,0" transform="rotate(120)"/>
      <path fill="#E8A830" d="M0,0C9,-12 11,-30 0,-40C-11,-30 -9,-12 0,0" transform="rotate(180)"/>
      <path fill="#E8A830" d="M0,0C9,-12 11,-30 0,-40C-11,-30 -9,-12 0,0" transform="rotate(240)"/>
      <path fill="#E8A830" d="M0,0C9,-12 11,-30 0,-40C-11,-30 -9,-12 0,0" transform="rotate(300)"/>
      <circle fill="#1B3A1E" r="13"/>
      <circle fill="#E8A830" r="6"/>
      <circle fill="#1B3A1E" r="2.5"/>
    </g>
    <text x="45" y="8" font-family="-apple-system, BlinkMacSystemFont, 'Segoe UI', Roboto, sans-serif" font-size="24" font-weight="700" fill="#E8A830" letter-spacing="3">BLOOMNEO</text>
  </g>

  <g transform="translate(80,260)" font-family="-apple-system, BlinkMacSystemFont, 'Segoe UI', Roboto, sans-serif">
    <text x="0" y="0" font-size="88" font-weight="500" fill="#B8C5B0" letter-spacing="-2">@bloomneo</text>
    <text x="0" y="135" font-size="160" font-weight="900" fill="#FFFFFF" letter-spacing="-6">appkit</text>
  </g>

  <g transform="translate(80,490)" font-family="-apple-system, BlinkMacSystemFont, 'Segoe UI', Roboto, sans-serif">
    <text x="0" y="0" font-size="32" font-weight="500" fill="#E8A830" letter-spacing="-0.5">Production Node.js backends in minutes</text>
    <text x="0" y="42" font-size="22" font-weight="400" fill="#7A8C73">Auth · Database · Cache · Queue · Storage · Email · Events — 12 typed modules for Express &amp; Fastify</text>
  </g>

  <g transform="translate(80,580)" font-family="-apple-system, BlinkMacSystemFont, 'Segoe UI', Roboto, sans-serif">
    <rect x="0" y="-25" width="90" height="34" rx="6" fill="#E8A830"/>
    <text x="45" y="-3" font-size="18" font-weight="700" fill="#1B3A1E" text-anchor="middle">v2.0.0</text>
    <text x="108" y="0" font-size="20" font-weight="500" fill="#B8C5B0">dev.bloomneo.com/appkit</text>
  </g>
</svg>
